<svg width="113" height="113" viewBox="0 0 113 113" fill="none" xmlns="http://www.w3.org/2000/svg">
<g id="devicon-plain:csharp">
<path id="Vector" d="M103.73 29.5742L103.995 29.3977C103.466 28.4266 102.671 27.5438 101.877 27.1024L59.2367 2.56017C58.5305 2.11876 57.5594 1.9422 56.5 1.9422C55.4406 1.9422 54.4695 2.20704 53.7633 2.56017L11.3883 27.1906C9.8875 28.0734 8.82812 30.2805 8.82812 31.9578V81.1305C8.82812 82.1016 9.00469 83.161 9.62266 84.132L9.44609 84.2203C9.8875 84.9266 10.5055 85.5445 11.1234 85.8977L53.675 110.528C54.3812 110.97 55.3523 111.146 56.4117 111.146C57.4711 111.146 58.4422 110.881 59.1484 110.528L101.523 85.8977C103.024 85.0149 104.084 82.8078 104.084 81.1305V31.8695C104.172 31.1633 104.084 30.3688 103.73 29.5742ZM56.5 91.3711C37.2547 91.3711 21.6289 75.7453 21.6289 56.5C21.6289 37.2547 37.2547 21.6289 56.5 21.6289C69.4773 21.6289 80.7773 28.7797 86.7805 39.2852L75.3039 45.9063C71.5961 39.2852 64.5336 34.8711 56.5 34.8711C44.582 34.8711 34.8711 44.582 34.8711 56.5C34.8711 68.418 44.582 78.1289 56.5 78.1289C64.5336 78.1289 71.5961 73.7149 75.3039 67.182L86.6922 73.8914C80.6891 84.3086 69.3891 91.3711 56.5 91.3711ZM101.523 54.7344H98.6984L97.9039 58.2656H101.523V62.6797H97.1094L96.05 67.9766H91.7242L92.7836 62.6797H89.4289L88.3695 67.9766H84.132L85.1914 62.6797H82.9844V58.2656H86.0742L86.8688 54.7344H82.9844V50.3203H87.6633L88.7227 45.0234H93.0484L91.9891 50.3203H95.3438L96.4031 45.0234H100.641L99.5813 50.3203H101.523V54.7344ZM90.3117 58.2656H93.6664L94.4609 54.7344H91.1062L90.3117 58.2656Z" fill="black"/>
</g>
</svg>
