<svg width="111" height="111" viewBox="0 0 111 111" fill="none" xmlns="http://www.w3.org/2000/svg">
<g id="akar-icons:css-fill" clip-path="url(#clip0_7_59)">
<path id="Vector" d="M34.6967 0H46.62V4.98575H39.6825V9.9715H46.62V14.9572H34.6967V0ZM49.0019 0H60.9297V4.33825H53.9922V5.20312H60.9297V15.1746H49.0019V10.6236H55.9394V9.75412H49.0019V0ZM63.3162 0H75.2349V4.33825H68.2974V5.20312H75.2349V15.1746H63.3162V10.6236H70.2537V9.75412H63.3162V0Z" fill="black"/>
<path id="Vector_2" fill-rule="evenodd" clip-rule="evenodd" d="M55.4584 111L23.3424 102.083L13.875 21.8161H97.125L87.6623 102.074L55.4584 111ZM32.5924 58.1501L33.4757 67.9921H67.5944L66.452 80.7571L55.4723 83.7264H55.463L44.5017 80.7663L43.7988 72.9177H33.9151L35.2934 88.3745L55.4584 93.9707L75.6557 88.3745L78.1162 60.791L78.3567 58.1501L80.1328 38.221H30.821L31.7182 48.0676H69.3473L68.45 58.1501H32.5924Z" fill="black"/>
</g>
<defs>
<clipPath id="clip0_7_59">
<rect width="111" height="111" fill="white"/>
</clipPath>
</defs>
</svg>
