<svg width="104" height="104" viewBox="0 0 104 104" fill="none" xmlns="http://www.w3.org/2000/svg">
<g id="ph:desktop-tower-fill">
<path id="Vector" d="M48.75 30.875V76.375C48.75 76.806 48.5788 77.2193 48.274 77.524C47.9693 77.8288 47.556 78 47.125 78H39V84.5H45.3903C46.2288 84.4897 47.0402 84.7967 47.6617 85.3595C48.2833 85.9223 48.6692 86.6993 48.7419 87.5347C48.7714 87.9792 48.7092 88.4251 48.5591 88.8446C48.4091 89.2641 48.1744 89.6483 47.8696 89.9733C47.5648 90.2983 47.1964 90.5571 46.7874 90.7337C46.3784 90.9103 45.9374 91.001 45.4919 91H26.1097C25.2698 91.0124 24.4564 90.7063 23.8331 90.1433C23.2098 89.5803 22.8228 88.8021 22.75 87.9653C22.7205 87.5208 22.7827 87.0749 22.9327 86.6554C23.0828 86.2359 23.3175 85.8517 23.6223 85.5267C23.9271 85.2017 24.2954 84.9429 24.7045 84.7663C25.1135 84.5897 25.5545 84.499 26 84.5H32.5V78H13C10.4141 78 7.93419 76.9728 6.10571 75.1443C4.27723 73.3158 3.25 70.8359 3.25 68.25V39C3.25 36.4141 4.27723 33.9342 6.10571 32.1057C7.93419 30.2772 10.4141 29.25 13 29.25H47.125C47.556 29.25 47.9693 29.4212 48.274 29.726C48.5788 30.0307 48.75 30.444 48.75 30.875ZM100.75 19.5V84.5C100.75 86.2239 100.065 87.8772 98.8462 89.0962C97.6272 90.3152 95.9739 91 94.25 91H61.75C60.0261 91 58.3728 90.3152 57.1538 89.0962C55.9348 87.8772 55.25 86.2239 55.25 84.5V19.5C55.25 17.7761 55.9348 16.1228 57.1538 14.9038C58.3728 13.6848 60.0261 13 61.75 13H94.25C95.9739 13 97.6272 13.6848 98.8462 14.9038C100.065 16.1228 100.75 17.7761 100.75 19.5ZM82.8344 73.7628C82.9675 72.7531 82.781 71.727 82.3012 70.8287C81.8213 69.9303 81.0721 69.2048 80.1588 68.7541C79.2455 68.3033 78.214 68.1499 77.2091 68.3154C76.2041 68.4809 75.2762 68.9569 74.5557 69.6768C73.8352 70.3966 73.3582 71.324 73.1918 72.3288C73.0253 73.3336 73.1777 74.3653 73.6276 75.279C74.0775 76.1927 74.8022 76.9426 75.7001 77.4233C76.598 77.9041 77.6239 78.0915 78.6337 77.9594C79.6983 77.8201 80.6871 77.3332 81.4467 76.5744C82.2062 75.8156 82.694 74.8273 82.8344 73.7628ZM91 42.0347C90.9272 41.1979 90.5402 40.4197 89.9169 39.8567C89.2936 39.2937 88.4802 38.9876 87.6403 39H68.3597C67.5212 38.9897 66.7098 39.2967 66.0883 39.8595C65.4667 40.4223 65.0808 41.1993 65.0081 42.0347C64.9786 42.4792 65.0408 42.9251 65.1909 43.3446C65.3409 43.7641 65.5756 44.1483 65.8804 44.4733C66.1852 44.7983 66.5536 45.0571 66.9626 45.2337C67.3716 45.4103 67.8126 45.501 68.2581 45.5H87.7581C88.203 45.4999 88.6431 45.4084 89.0511 45.2313C89.4592 45.0542 89.8266 44.7952 90.1305 44.4703C90.4344 44.1455 90.6684 43.7617 90.8179 43.3427C90.9675 42.9238 91.0295 42.4786 91 42.0347ZM91 29.0347C90.9272 28.1979 90.5402 27.4197 89.9169 26.8567C89.2936 26.2937 88.4802 25.9876 87.6403 26H68.3597C67.5198 25.9876 66.7064 26.2937 66.0831 26.8567C65.4598 27.4197 65.0728 28.1979 65 29.0347C64.9705 29.4792 65.0327 29.9251 65.1827 30.3446C65.3328 30.7641 65.5675 31.1483 65.8723 31.4733C66.1771 31.7983 66.5454 32.0571 66.9545 32.2337C67.3635 32.4103 67.8045 32.501 68.25 32.5H87.75C88.1955 32.501 88.6365 32.4103 89.0455 32.2337C89.4546 32.0571 89.8229 31.7983 90.1277 31.4733C90.4325 31.1483 90.6672 30.7641 90.8173 30.3446C90.9673 29.9251 91.0295 29.4792 91 29.0347Z" fill="black"/>
</g>
</svg>
