<svg width="88" height="88" viewBox="0 0 88 88" fill="none" xmlns="http://www.w3.org/2000/svg">
<g id="vaadin:family" clip-path="url(#clip0_17_30)">
<path id="Vector" d="M52.25 41.25C52.2493 43.4388 51.3791 45.5376 49.8309 47.0848C48.2827 48.6319 46.1833 49.5007 43.9945 49.5C41.8057 49.4993 39.7069 48.6291 38.1597 47.0809C36.6126 45.5327 35.7438 43.4333 35.7445 41.2445C35.7452 39.0557 36.6154 36.9569 38.1636 35.4097C39.7118 33.8626 41.8112 32.9938 44 32.9945C46.1888 32.9952 48.2876 33.8654 49.8348 35.4136C51.382 36.9618 52.2507 39.0612 52.25 41.25ZM78.485 22H64.515C61.9915 22 59.5713 23.0025 57.7869 24.7869C56.0025 26.5713 55 28.9915 55 31.515V49.5C55 50.9587 55.5795 52.3576 56.6109 53.3891C57.6424 54.4205 59.0413 55 60.5 55V88H82.5V55C83.9587 55 85.3576 54.4205 86.3891 53.3891C87.4205 52.3576 88 50.9587 88 49.5V31.515C88 28.9915 86.9975 26.5713 85.2131 24.7869C83.4287 23.0025 81.0085 22 78.485 22Z" fill="black"/>
<path id="Vector_2" d="M82.5 11C82.5331 12.4648 82.2733 13.9216 81.7357 15.2846C81.198 16.6477 80.3935 17.8896 79.3694 18.9374C78.3452 19.9853 77.122 20.818 75.7716 21.3866C74.4212 21.9552 72.9708 22.2483 71.5056 22.2487C70.0403 22.249 68.5898 21.9567 67.2391 21.3887C65.8884 20.8208 64.6648 19.9887 63.6401 18.9414C62.6154 17.894 61.8103 16.6525 61.272 15.2897C60.7337 13.9269 60.4731 12.4704 60.5055 11.0055C60.5691 8.13138 61.7552 5.39638 63.8101 3.38593C65.865 1.37549 68.6253 0.249376 71.5001 0.248658C74.3748 0.247939 77.1357 1.37267 79.1916 3.38209C81.2475 5.39151 82.435 8.12592 82.5 11ZM23.485 27.5H9.515C8.26511 27.5003 7.02753 27.7469 5.87292 28.2255C4.71832 28.7042 3.66929 29.4055 2.78574 30.2896C1.90219 31.1737 1.20142 32.2231 0.723444 33.378C0.245466 34.5329 -0.000360738 35.7706 3.9732e-07 37.0205C0.000361532 38.2704 0.246903 39.5079 0.725548 40.6625C1.20419 41.8172 1.90557 42.8662 2.78963 43.7497C3.67369 44.6333 4.72312 45.3341 5.87801 45.812C7.03289 46.29 8.27061 46.5358 9.5205 46.5355C12.0448 46.5347 14.4654 45.5313 16.2498 43.7458C18.0342 41.9604 19.0362 39.5392 19.0355 37.015C19.0348 34.4907 18.0313 32.0701 16.2459 30.2857C14.4604 28.5013 12.0393 27.4992 9.515 27.5C6.99147 27.5 4.57015 28.5052 2.78574 30.2896C1.00133 32.074 3.9732e-07 34.4969 3.9732e-07 37.0205L5.97892e-07 49.5C5.97892e-07 50.9587 0.579463 52.3576 1.61091 53.3891C2.64236 54.4205 4.04131 55 5.5 55L5.97892e-07 71.5H5.5V88H27.5V71.5H33L27.5 55C28.9587 55 30.3576 54.4205 31.3891 53.3891C32.4205 52.3576 33 50.9587 33 49.5V37.015C33 35.7654 32.7539 34.5282 32.2757 33.3737C31.7975 32.2193 31.0967 31.1704 30.2131 30.2869C29.3296 29.4033 28.2806 28.7024 27.1262 28.2243C25.9718 27.7461 24.7345 27.5 23.485 27.5Z" fill="black"/>
<path id="Vector_3" d="M27.5 16.5C27.5331 17.9648 27.2733 19.4216 26.7357 20.7846C26.1981 22.1477 25.3935 23.3896 24.3694 24.4374C23.3452 25.4853 22.122 26.318 20.7716 26.8866C19.4212 27.4552 17.9708 27.7483 16.5056 27.7487C15.0403 27.749 13.5898 27.4567 12.2391 26.8887C10.8884 26.3208 9.66478 25.4887 8.64009 24.4414C7.61539 23.394 6.81027 22.1525 6.27198 20.7897C5.7337 19.4269 5.4731 17.9704 5.5055 16.5055C5.56905 13.6314 6.75523 10.8964 8.81011 8.88593C10.865 6.87549 13.6253 5.74938 16.5001 5.74866C19.3748 5.74794 22.1357 6.87267 24.1916 8.88209C26.2475 10.8915 27.435 13.6259 27.5 16.5ZM38.5 71.5V88H49.5V71.5C50.9587 71.5 52.3576 70.9205 53.3891 69.8891C54.4205 68.8576 55 67.4587 55 66V57.53C55 55.4003 54.154 53.3578 52.6481 51.8519C51.1421 50.346 49.0997 49.5 46.97 49.5H41.03C38.9003 49.5 36.8578 50.346 35.3519 51.8519C33.846 53.3578 33 55.4003 33 57.53V66C33 67.4587 33.5795 68.8576 34.6109 69.8891C35.6424 70.9205 37.0413 71.5 38.5 71.5Z" fill="black"/>
</g>
<defs>
<clipPath id="clip0_17_30">
<rect width="88" height="88" fill="white"/>
</clipPath>
</defs>
</svg>
