<svg width="92" height="92" viewBox="0 0 92 92" fill="none" xmlns="http://www.w3.org/2000/svg">
<g id="gg:figma">
<path id="Vector" d="M32.4063 7.625C29.3728 7.625 26.4637 8.83002 24.3187 10.975C22.1738 13.1199 20.9688 16.0291 20.9688 19.0625C20.9688 22.0959 22.1738 25.0051 24.3187 27.15C26.4637 29.295 29.3728 30.5 32.4063 30.5H59.0938C62.1272 30.5 65.0363 29.295 67.1813 27.15C69.3262 25.0051 70.5313 22.0959 70.5313 19.0625C70.5313 16.0291 69.3262 13.1199 67.1813 10.975C65.0363 8.83002 62.1272 7.625 59.0938 7.625H32.4063ZM59.0938 34.3125C56.0603 34.3125 53.1512 35.5175 51.0062 37.6625C48.8613 39.8074 47.6563 42.7166 47.6563 45.75C47.6563 48.7834 48.8613 51.6926 51.0062 53.8375C53.1512 55.9825 56.0603 57.1875 59.0938 57.1875C62.1272 57.1875 65.0363 55.9825 67.1813 53.8375C69.3262 51.6926 70.5313 48.7834 70.5313 45.75C70.5313 42.7166 69.3262 39.8074 67.1813 37.6625C65.0363 35.5175 62.1272 34.3125 59.0938 34.3125ZM20.9688 45.75C20.9688 42.7166 22.1738 39.8074 24.3187 37.6625C26.4637 35.5175 29.3728 34.3125 32.4063 34.3125H43.8438V57.1875H32.4063C29.3728 57.1875 26.4637 55.9825 24.3187 53.8375C22.1738 51.6926 20.9688 48.7834 20.9688 45.75ZM32.4063 61C30.1441 61 27.9328 61.6708 26.0519 62.9276C24.171 64.1843 22.7051 65.9706 21.8394 68.0606C20.9737 70.1505 20.7472 72.4502 21.1885 74.6688C21.6298 76.8875 22.7192 78.9255 24.3187 80.525C25.9183 82.1246 27.9563 83.2139 30.1749 83.6552C32.3936 84.0966 34.6933 83.8701 36.7832 83.0044C38.8731 82.1387 40.6594 80.6727 41.9162 78.7918C43.173 76.9109 43.8438 74.6996 43.8438 72.4375V61H32.4063Z" fill="black"/>
</g>
</svg>
