<svg width="92" height="92" viewBox="0 0 92 92" fill="none" xmlns="http://www.w3.org/2000/svg">
<g id="skill-icons:git" clip-path="url(#clip0_7_76)">
<g id="Group">
<path id="Vector" d="M70.0547 0H21.4453C9.60139 0 0 9.60139 0 21.4453V70.0547C0 81.8986 9.60139 91.5 21.4453 91.5H70.0547C81.8986 91.5 91.5 81.8986 91.5 70.0547V21.4453C91.5 9.60139 81.8986 0 70.0547 0Z" fill="black"/>
<g id="Clip path group">
<mask id="mask0_7_76" style="mask-type:luminance" maskUnits="userSpaceOnUse" x="10" y="10" width="72" height="72">
<g id="skillIconsGit0">
<path id="Vector_2" d="M10.0078 10.0078H81.4922V81.4922H10.0078V10.0078Z" fill="white"/>
</g>
</mask>
<g mask="url(#mask0_7_76)">
<g id="Group_2">
<path id="Vector_3" d="M80.1429 42.5668L48.9332 11.3571C48.2897 10.7129 47.4695 10.2741 46.5765 10.0964C45.6835 9.91868 44.7578 10.01 43.9168 10.3588C43.3583 10.5902 42.851 10.9295 42.4238 11.3571L35.9455 17.8354L44.1662 26.0561C46.0784 25.3859 48.2677 25.8438 49.791 27.3674C50.5162 28.094 51.0224 29.0098 51.2519 30.0104C51.4814 31.0109 51.4249 32.0558 51.0888 33.0258L59.0125 40.9495C60.9293 40.2882 63.1407 40.7147 64.6708 42.2494C65.4373 43.0156 65.9592 43.9919 66.1705 45.0548C66.3818 46.1177 66.273 47.2195 65.8578 48.2205C65.3012 49.5626 64.2345 50.6288 62.8921 51.1846C61.5496 51.7404 60.0414 51.7404 58.699 51.1846C58.0342 50.909 57.4302 50.5055 56.9216 49.9965C55.3132 48.3881 54.9157 46.0202 55.7288 44.0387L48.3391 36.649V56.0952C48.8756 56.3606 49.3658 56.7106 49.791 57.1317C50.8183 58.1591 51.3955 59.5524 51.3955 61.0053C51.3955 62.4582 50.8183 63.8515 49.791 64.8789C48.7637 65.9062 47.3703 66.4834 45.9174 66.4834C44.4646 66.4834 43.0712 65.9062 42.0439 64.8789C41.2771 64.1131 40.7548 63.137 40.5432 62.0741C40.3316 61.0113 40.4401 59.9096 40.8551 58.9085C41.1306 58.2438 41.5346 57.64 42.0439 57.1317C42.5732 56.6046 43.1608 56.2046 43.8378 55.9365V36.3094C43.1661 36.0348 42.5561 35.6285 42.0439 35.1146C41.2747 34.3462 40.7518 33.3663 40.5417 32.2996C40.3317 31.2329 40.444 30.1278 40.8644 29.1252L32.7555 21.0211L11.3549 42.3992C10.7107 43.043 10.2719 43.8634 10.094 44.7567C9.9162 45.65 10.0073 46.5759 10.3559 47.4174C10.5876 47.9761 10.927 48.4836 11.3549 48.911L42.5668 80.1183C42.9941 80.5458 43.5014 80.885 44.0597 81.1165C45.1878 81.5835 46.4551 81.5835 47.5832 81.1165C48.1415 80.885 48.6488 80.5458 49.0761 80.1183L80.1429 49.1008C80.5706 48.6734 80.91 48.1658 81.1416 47.6072C81.3731 47.0486 81.4924 46.4498 81.4925 45.8451C81.4926 45.2403 81.3734 44.6414 81.1418 44.0827C80.9102 43.524 80.5708 43.0164 80.1429 42.589" fill="#68B699"/>
</g>
</g>
</g>
</g>
</g>
<defs>
<clipPath id="clip0_7_76">
<rect width="91.5" height="91.5" fill="white"/>
</clipPath>
</defs>
</svg>
