<svg width="92" height="92" viewBox="0 0 92 92" fill="none" xmlns="http://www.w3.org/2000/svg">
<g id="skill-icons:github-dark" clip-path="url(#clip0_7_87)">
<g id="Group">
<path id="Vector" d="M70.0547 0H21.4453C9.60139 0 0 9.60139 0 21.4453V70.0547C0 81.8986 9.60139 91.5 21.4453 91.5H70.0547C81.8986 91.5 91.5 81.8986 91.5 70.0547V21.4453C91.5 9.60139 81.8986 0 70.0547 0Z" fill="black"/>
<path id="Vector_2" d="M45.7504 10.7227C26.0128 10.7227 10.0078 26.7244 10.0078 46.4652C10.0078 62.2572 20.249 75.6548 34.4508 80.381C36.2369 80.7119 36.8927 79.6057 36.8927 78.6618C36.8927 77.8093 36.8595 74.9939 36.8441 72.0073C26.9006 74.1693 24.8026 67.7901 24.8026 67.7901C23.1763 63.6586 20.8338 62.5603 20.8338 62.5603C17.5909 60.3417 21.0782 60.3875 21.0782 60.3875C24.6675 60.6395 26.5575 64.0707 26.5575 64.0707C29.7454 69.535 34.919 67.9552 36.9585 67.042C37.2795 64.7316 38.2055 63.155 39.2278 62.2625C31.2887 61.3586 22.9436 58.2937 22.9436 44.5984C22.9436 40.6961 24.3397 37.5075 26.6261 35.0045C26.2548 34.1041 25.0313 30.4688 26.9721 25.5457C26.9721 25.5457 29.9738 24.5849 36.8041 29.2092C39.6552 28.4175 42.7126 28.0204 45.7504 28.0069C48.7877 28.0204 51.848 28.4175 54.7041 29.2096C61.5262 24.5849 64.5236 25.546 64.5236 25.546C66.469 30.4688 65.2452 34.1045 64.8739 35.0045C67.1656 37.5075 68.5524 40.6961 68.5524 44.5984C68.5524 58.3266 60.1909 61.3493 52.2318 62.2339C53.5139 63.3434 54.6562 65.5183 54.6562 68.853C54.6562 73.6353 54.6148 77.4844 54.6148 78.6618C54.6148 79.6129 55.2581 80.7273 57.0699 80.3763C71.2638 75.6448 81.4922 62.2518 81.4922 46.4652C81.4922 26.7248 65.4893 10.7227 45.7504 10.7227ZM23.3947 61.6385C23.3161 61.8161 23.0366 61.8694 22.7821 61.7475C22.5226 61.631 22.3771 61.3886 22.4611 61.2106C22.538 61.0276 22.8182 60.9769 23.0766 61.0995C23.3364 61.216 23.4844 61.4605 23.3947 61.6385ZM25.1529 63.2072C24.9824 63.3655 24.6489 63.2919 24.423 63.0421C24.1892 62.7929 24.1453 62.4598 24.3183 62.2993C24.4938 62.1414 24.8172 62.2154 25.0513 62.4645C25.2851 62.7168 25.3308 63.0474 25.1529 63.2072ZM26.3588 65.2145C26.1397 65.3667 25.7816 65.2241 25.5603 64.906C25.3412 64.5883 25.3412 64.2073 25.565 64.0543C25.7869 63.9017 26.1397 64.0389 26.3642 64.3545C26.5825 64.6776 26.5825 65.059 26.3588 65.2145ZM28.3986 67.5392C28.2027 67.755 27.7856 67.6971 27.48 67.4023C27.1676 67.1142 27.0804 66.7053 27.277 66.489C27.4754 66.2724 27.895 66.3336 28.2027 66.6259C28.513 66.9133 28.6077 67.3254 28.3986 67.5392ZM31.0349 68.3237C30.9484 68.6039 30.5467 68.7312 30.1417 68.6121C29.7379 68.4895 29.473 68.1618 29.5549 67.8787C29.6389 67.5971 30.0424 67.4644 30.4502 67.5917C30.8541 67.7136 31.1189 68.0392 31.0349 68.3237ZM34.0351 68.6568C34.0451 68.9513 33.702 69.1958 33.277 69.2012C32.8496 69.2108 32.5039 68.9721 32.4993 68.6822C32.4993 68.3845 32.8349 68.1425 33.262 68.1353C33.6874 68.1271 34.0351 68.3637 34.0351 68.6568ZM36.9824 68.5439C37.0336 68.8312 36.7383 69.1268 36.3162 69.2055C35.9012 69.2812 35.517 69.1036 35.4645 68.8184C35.413 68.5235 35.7136 68.2283 36.1278 68.1518C36.5507 68.0785 36.9288 68.2515 36.9824 68.5439Z" fill="#68B699"/>
</g>
</g>
<defs>
<clipPath id="clip0_7_87">
<rect width="91.5" height="91.5" fill="white"/>
</clipPath>
</defs>
</svg>
