<svg width="123" height="122" viewBox="0 0 123 122" fill="none" xmlns="http://www.w3.org/2000/svg">
<g id="fluent:javascript-24-filled">
<path id="Vector" d="M15.9375 31.7708V90.2292C15.9375 94.6108 17.6781 98.8129 20.7763 101.911C23.8746 105.009 28.0767 106.75 32.4583 106.75H90.9167C95.2983 106.75 99.5004 105.009 102.599 101.911C105.697 98.8129 107.438 94.6108 107.438 90.2292V31.7708C107.438 27.3892 105.697 23.1871 102.599 20.0888C99.5004 16.9906 95.2983 15.25 90.9167 15.25H32.4583C28.0767 15.25 23.8746 16.9906 20.7763 20.0888C17.6781 23.1871 15.9375 27.3892 15.9375 31.7708ZM61.6875 48.2917C62.6986 48.2917 63.6684 48.6933 64.3833 49.4083C65.0983 50.1233 65.5 51.093 65.5 52.1042V82.6042C65.5 84.9635 64.5628 87.2262 62.8945 88.8945C61.2262 90.5628 58.9635 91.5 56.6042 91.5H50.25C49.2389 91.5 48.2691 91.0983 47.5542 90.3833C46.8392 89.6684 46.4375 88.6986 46.4375 87.6875C46.4375 86.6764 46.8392 85.7066 47.5542 84.9917C48.2691 84.2767 49.2389 83.875 50.25 83.875H56.6042C56.9412 83.875 57.2645 83.7411 57.5028 83.5028C57.7411 83.2645 57.875 82.9412 57.875 82.6042V52.1042C57.875 51.093 58.2767 50.1233 58.9917 49.4083C59.7066 48.6933 60.6764 48.2917 61.6875 48.2917ZM71.8542 57.1875C71.8542 52.277 75.8395 48.2917 80.75 48.2917H88.375C89.3861 48.2917 90.3559 48.6933 91.0708 49.4083C91.7858 50.1233 92.1875 51.093 92.1875 52.1042C92.1875 53.1153 91.7858 54.085 91.0708 54.8C90.3559 55.515 89.3861 55.9167 88.375 55.9167H80.75C80.413 55.9167 80.0897 56.0506 79.8514 56.2889C79.6131 56.5272 79.4792 56.8505 79.4792 57.1875V64.8125C79.4792 65.514 80.0485 66.0833 80.75 66.0833H83.2917C88.2022 66.0833 92.1875 70.0687 92.1875 74.9792V82.6042C92.1875 84.9635 91.2503 87.2262 89.582 88.8945C87.9137 90.5628 85.651 91.5 83.2917 91.5H75.6667C74.6555 91.5 73.6858 91.0983 72.9708 90.3833C72.2558 89.6684 71.8542 88.6986 71.8542 87.6875C71.8542 86.6764 72.2558 85.7066 72.9708 84.9917C73.6858 84.2767 74.6555 83.875 75.6667 83.875H83.2917C83.6287 83.875 83.952 83.7411 84.1903 83.5028C84.4286 83.2645 84.5625 82.9412 84.5625 82.6042V74.9792C84.5625 74.6421 84.4286 74.3189 84.1903 74.0806C83.952 73.8422 83.6287 73.7083 83.2917 73.7083H80.75C78.3907 73.7083 76.128 72.7711 74.4597 71.1028C72.7914 69.4345 71.8542 67.1718 71.8542 64.8125V57.1875Z" fill="black"/>
</g>
</svg>
