<svg width="104" height="84" viewBox="0 0 104 84" fill="none" xmlns="http://www.w3.org/2000/svg">
<g id="fa6-solid:motorcycle">
<path id="Vector" d="M45.5 5.24999C43.3387 5.24999 41.6 7.00546 41.6 9.18749C41.6 11.3695 43.3387 13.125 45.5 13.125H54.8762L57.5412 18.0961L41.6 31.5L34.2387 24.068C32.2887 22.0992 29.64 21 26.8775 21H10.4C7.52375 21 5.2 23.3461 5.2 26.25V31.5H20.8C35.165 31.5 46.8 43.2469 46.8 57.75C46.8 59.5547 46.6212 61.3101 46.28 63H57.72C57.3787 61.3101 57.2 59.5547 57.2 57.75C57.2 49.1859 61.2625 41.5734 67.5512 36.7828L70.0537 41.475C65.39 45.3305 62.4 51.1875 62.4 57.75C62.4 69.3492 71.7112 78.75 83.2 78.75C94.6887 78.75 104 69.3492 104 57.75C104 46.1508 94.6887 36.75 83.2 36.75C81.0062 36.75 78.8937 37.0945 76.9112 37.7344L67.9575 21H78C80.8762 21 83.2 18.6539 83.2 15.75V10.5C83.2 7.59608 80.8762 5.24999 78 5.24999H74.685C73.4662 5.24999 72.2962 5.67655 71.3537 6.46405L63.6512 12.9445L61.3762 8.67889C60.2387 6.56249 58.045 5.23358 55.6562 5.23358H45.5V5.24999ZM75.1887 51.0562L79.7712 59.6203C80.795 61.5398 83.1675 62.2453 85.0525 61.2117C86.9375 60.1781 87.6525 57.7828 86.6287 55.8797L82.0462 47.3156C82.42 47.2664 82.81 47.25 83.2 47.25C88.9362 47.25 93.6 51.9586 93.6 57.75C93.6 63.5414 88.9362 68.25 83.2 68.25C77.4637 68.25 72.8 63.5414 72.8 57.75C72.8 55.207 73.6937 52.8773 75.1887 51.0562ZM30.4362 61.6875C28.8925 65.543 25.155 68.25 20.8 68.25C15.0637 68.25 10.4 63.5414 10.4 57.75C10.4 51.9586 15.0637 47.25 20.8 47.25C25.1712 47.25 28.9087 49.957 30.4362 53.8125H41.2262C39.4062 44.1 30.9562 36.75 20.8 36.75C9.31125 36.75 0 46.1508 0 57.75C0 69.3492 9.31125 78.75 20.8 78.75C30.9562 78.75 39.4062 71.4 41.2425 61.6875H30.4362ZM20.8 63C22.1791 63 23.5018 62.4469 24.477 61.4623C25.4521 60.4777 26 59.1424 26 57.75C26 56.3576 25.4521 55.0222 24.477 54.0377C23.5018 53.0531 22.1791 52.5 20.8 52.5C19.4209 52.5 18.0982 53.0531 17.123 54.0377C16.1479 55.0222 15.6 56.3576 15.6 57.75C15.6 59.1424 16.1479 60.4777 17.123 61.4623C18.0982 62.4469 19.4209 63 20.8 63Z" fill="black"/>
</g>
</svg>
