<svg width="111" height="111" viewBox="0 0 111 111" fill="none" xmlns="http://www.w3.org/2000/svg">
<g id="fluent:tv-24-filled">
<path id="Vector" d="M21.9688 18.5C18.5955 18.5 15.3605 19.84 12.9752 22.2252C10.59 24.6105 9.25 27.8455 9.25 31.2188V70.5312C9.25 73.9045 10.59 77.1395 12.9752 79.5248C15.3605 81.91 18.5955 83.25 21.9688 83.25H89.0312C92.4045 83.25 95.6395 81.91 98.0248 79.5248C100.41 77.1395 101.75 73.9045 101.75 70.5312V31.2188C101.75 27.8455 100.41 24.6105 98.0248 22.2252C95.6395 19.84 92.4045 18.5 89.0312 18.5H21.9688ZM23.125 93.6562C23.125 92.7363 23.4905 91.854 24.141 91.2035C24.7915 90.553 25.6738 90.1875 26.5938 90.1875H84.4062C85.3262 90.1875 86.2085 90.553 86.859 91.2035C87.5095 91.854 87.875 92.7363 87.875 93.6562C87.875 94.5762 87.5095 95.4585 86.859 96.109C86.2085 96.7595 85.3262 97.125 84.4062 97.125H26.5938C25.6738 97.125 24.7915 96.7595 24.141 96.109C23.4905 95.4585 23.125 94.5762 23.125 93.6562Z" fill="black"/>
</g>
</svg>
